# xmcd CD database file
#
# Track frame offsets:
#	150
#	53397
#	76482
#	95995
#	124887
#	150046
#	185227
#	216261
#	289929
#
# Disc length: 4113 seconds
#
# Revision: 1
# Processed by: cddbd v1.5PL3 Copyright (c) Steve Scherf et al.
# Submitted via: CDex 1.51
#
DISCID=7d100f09
DTITLE=David Field - RED DOG - An Australian Story CD 1
DYEAR=2001
DGENRE=Country
TTITLE0=The Stinker
TTITLE1=Red Dog Goes to Dampier
TTITLE2=Tally Ho at the Barbecue
TTITLE3=Red Dog Meets john
TTITLE4=Red Dog and Nancy Grey
TTITLE5=Nancy, Red Dog and John
TTITLE6=Red Dog and the Posh Pooches
TTITLE7=Red Dog's Expensive Injury
TTITLE8=Red Dog and the Woman from Perth
EXTD=YEAR: 2001
EXTT0=
EXTT1=
EXTT2=
EXTT3=
EXTT4=
EXTT5=
EXTT6=
EXTT7=
EXTT8=
PLAYORDER=
